<svg width="58" height="50" viewBox="0 0 58 50" fill="none" xmlns="http://www.w3.org/2000/svg">
<path d="M45.2642 11.2708L42.1708 13.3542L29 21.7917L15.8292 13.2708L12.7358 11.1875C12.0071 10.6678 11.1175 10.3438 10.1773 10.2557C9.23705 10.1676 8.2875 10.3193 7.44626 10.6918C6.60502 11.0644 5.90906 11.6416 5.44461 12.3518C4.98016 13.0621 4.76763 13.8741 4.83334 14.6875V38.8333C4.83334 39.5848 5.17961 40.3054 5.79598 40.8368C6.41235 41.3682 7.24833 41.6667 8.12 41.6667H15.8292V25.5833L29 34.1042L42.1708 25.5833V41.6667H49.88C50.7517 41.6667 51.5877 41.3682 52.204 40.8368C52.8204 40.3054 53.1667 39.5848 53.1667 38.8333V14.6875C53.2121 13.8812 52.9847 13.0808 52.5124 12.3838C52.04 11.6867 51.3429 11.123 50.5058 10.7611C49.6688 10.3992 48.7278 10.2547 47.7972 10.3452C46.8667 10.4357 45.9867 10.7573 45.2642 11.2708Z" fill="#FAF8F8"/>
</svg>
