<svg width="56" height="50" viewBox="0 0 56 50" fill="none" xmlns="http://www.w3.org/2000/svg">
<path d="M46.6667 22.9146H51.3334C51.3334 12.2271 42.2964 4.16666 30.3101 4.16666V8.33332C39.7881 8.33332 46.6667 14.4646 46.6667 22.9146Z" fill="#FDFAFA"/>
<path d="M30.3334 16.6667C35.2404 16.6667 37.3334 18.5354 37.3334 22.9167H42.0001C42.0001 16.1979 37.8584 12.5 30.3334 12.5V16.6667ZM38.3181 28.0063C37.8697 27.6424 37.2805 27.4484 36.6749 27.4651C36.0693 27.4818 35.4947 27.708 35.0724 28.0958L29.4887 33.2229C28.1447 32.9938 25.4427 32.2417 22.6614 29.7646C19.88 27.2792 19.0377 24.8604 18.788 23.6688L24.5257 18.6813C24.9607 18.3044 25.2144 17.7913 25.2331 17.2504C25.2518 16.7096 25.0341 16.1834 24.626 15.7833L16.0044 7.31875C15.5961 6.91741 15.0288 6.67397 14.4227 6.64013C13.8167 6.60629 13.2198 6.78471 12.7587 7.1375L7.69538 11.0146C7.29197 11.3761 7.05119 11.8572 7.01871 12.3667C6.98371 12.8875 6.31638 25.225 17.031 34.7958C26.3784 43.1396 38.0871 43.75 41.3117 43.75C41.7831 43.75 42.0724 43.7375 42.1494 43.7333C42.7199 43.7048 43.2585 43.4889 43.6614 43.1271L48.0014 38.6042C48.3968 38.1928 48.597 37.6599 48.5596 37.1189C48.5221 36.5778 48.2499 36.071 47.8007 35.7063L38.3181 28.0063Z" fill="#FFFEFE"/>
</svg>
