<svg width="66" height="52" viewBox="0 0 66 52" fill="none" xmlns="http://www.w3.org/2000/svg">
<path d="M32.9972 15.9835C29.6248 15.9835 26.3904 17.039 24.0057 18.9179C21.621 20.7968 20.2813 23.3451 20.2812 26.0022C20.2813 28.6593 21.621 31.2076 24.0057 33.0864C26.3904 34.9653 29.6248 36.0208 32.9972 36.0208C36.3697 36.0208 39.6041 34.9653 41.9888 33.0864C44.3735 31.2076 45.7132 28.6593 45.7132 26.0022C45.7132 23.3451 44.3735 20.7968 41.9888 18.9179C39.6041 17.039 36.3697 15.9835 32.9972 15.9835ZM32.9972 32.5087C30.8063 32.5087 28.7051 31.8229 27.1558 30.6023C25.6066 29.3817 24.7362 27.7262 24.7362 26C24.7362 24.2738 25.6066 22.6183 27.1558 21.3977C28.7051 20.1771 30.8063 19.4913 32.9972 19.4913C35.1882 19.4913 37.2894 20.1771 38.8387 21.3977C40.3879 22.6183 41.2583 24.2738 41.2583 26C41.2583 27.7262 40.3879 29.3817 38.8387 30.6023C37.2894 31.8229 35.1882 32.5087 32.9972 32.5087Z" fill="#FEFDFD"/>
<path d="M46.2165 17.9508C47.8537 17.9508 49.181 16.9051 49.181 15.6152C49.181 14.3252 47.8537 13.2795 46.2165 13.2795C44.5792 13.2795 43.252 14.3252 43.252 15.6152C43.252 16.9051 44.5792 17.9508 46.2165 17.9508Z" fill="#FFFCFC"/>
<path d="M56.4657 13.2405C55.8291 11.9452 54.8562 10.7689 53.6094 9.78696C52.3626 8.80498 50.8692 8.03892 49.225 7.53783C47.3009 6.96877 45.2682 6.66107 43.2135 6.62783C40.5652 6.53683 39.7265 6.51083 33.011 6.51083C26.2955 6.51083 25.4347 6.51083 22.8085 6.62783C20.7553 6.65937 18.7241 6.96714 16.8025 7.53783C15.1578 8.03834 13.6641 8.80419 12.4172 9.78624C11.1702 10.7683 10.1976 11.9449 9.56174 13.2405C8.83933 14.7563 8.44968 16.358 8.40949 17.9768C8.29124 20.0612 8.25549 20.722 8.25549 26.0152C8.25549 31.3062 8.25549 31.98 8.40949 34.0535C8.45074 35.6742 8.83849 37.2732 9.56174 38.792C10.1994 40.0871 11.173 41.2633 12.4202 42.2452C13.6674 43.2271 15.1609 43.9932 16.8052 44.4947C18.7232 45.0866 20.7553 45.4163 22.814 45.4697C25.4622 45.5607 26.301 45.5888 33.0165 45.5888C39.732 45.5888 40.5927 45.5888 43.219 45.4697C45.2735 45.4367 47.3061 45.1298 49.2305 44.5618C50.8743 44.0596 52.3672 43.2929 53.6139 42.3106C54.8606 41.3284 55.8338 40.1521 56.4712 38.857C57.1945 37.3403 57.5822 35.7413 57.6235 34.1207C57.7417 32.0363 57.7775 31.3755 57.7775 26.0823C57.7775 20.7892 57.7775 20.1175 57.6235 18.044C57.5915 16.4023 57.1998 14.7772 56.4657 13.2405ZM53.1162 33.8932C53.0985 35.1418 52.8092 36.3788 52.261 37.5505C51.848 38.393 51.2158 39.1582 50.4049 39.7966C49.5941 40.4351 48.6226 40.9328 47.553 41.2577C46.0824 41.6876 44.529 41.9156 42.9605 41.9315C40.348 42.0268 39.611 42.0507 32.912 42.0507C26.2075 42.0507 25.5227 42.0507 22.8607 41.9315C21.293 41.9164 19.7404 41.6884 18.271 41.2577C17.1976 40.9348 16.2222 40.438 15.4079 39.7994C14.5936 39.1608 13.9585 38.3947 13.5437 37.5505C13.0032 36.3914 12.7141 35.169 12.6885 33.9343C12.5702 31.876 12.5427 31.2953 12.5427 26.0173C12.5427 20.7372 12.5427 20.1977 12.6885 18.0982C12.7063 16.8502 12.9955 15.6139 13.5437 14.443C14.3825 12.7335 16.1012 11.388 18.271 10.7337C19.7411 10.305 21.2933 10.0771 22.8607 10.0598C25.476 9.96667 26.2102 9.94067 32.912 9.94067C39.6137 9.94067 40.3012 9.94067 42.9605 10.0598C44.5291 10.0747 46.0827 10.3027 47.553 10.7337C48.6225 11.0593 49.5939 11.5574 50.4047 12.1962C51.2154 12.835 51.8477 13.6003 52.261 14.443C52.8015 15.6021 53.0906 16.8245 53.1162 18.0592C53.2345 20.1197 53.2647 20.6982 53.2647 25.9783C53.2647 31.2563 53.2647 31.824 53.1465 33.8953H53.1162V33.8932Z" fill="#FCFAFC"/>
</svg>
