<svg width="86" height="72" viewBox="0 0 86 72" fill="none" xmlns="http://www.w3.org/2000/svg">
<path d="M70.3515 23.991C70.3981 24.516 70.3981 25.038 70.3981 25.56C70.3981 41.535 55.8749 59.943 29.3331 59.943C21.156 59.943 13.5593 57.96 7.16663 54.516C8.32763 54.627 9.44563 54.666 10.6532 54.666C17.1498 54.6791 23.4624 52.8604 28.5735 49.503C25.5614 49.4574 22.6415 48.6254 20.2216 47.1232C17.8016 45.621 16.0024 43.5237 15.075 41.124C15.9673 41.235 16.8631 41.31 17.802 41.31C19.0955 41.31 20.3963 41.16 21.6039 40.899C18.335 40.3464 15.3957 38.8631 13.2856 36.7011C11.1755 34.5391 10.025 31.832 10.0297 29.04V28.89C11.954 29.787 14.1864 30.348 16.5514 30.423C14.5701 29.3208 12.9455 27.8251 11.8226 26.0694C10.6996 24.3137 10.1132 22.3526 10.1157 20.361C10.1157 18.117 10.8288 16.059 12.0794 14.265C15.7062 18.0001 20.2297 21.0557 25.3568 23.234C30.484 25.4123 36.1005 26.6647 41.8425 26.91C41.6204 26.01 41.4842 25.077 41.4842 24.141C41.4833 22.5539 41.856 20.9822 42.581 19.5157C43.306 18.0493 44.3692 16.7168 45.7096 15.5946C47.0501 14.4723 48.6416 13.5822 50.3932 12.9752C52.1448 12.3682 54.0222 12.0562 55.9179 12.057C60.0745 12.057 63.8263 13.515 66.4636 15.873C69.695 15.3499 72.7937 14.3623 75.6226 12.954C74.5455 15.7465 72.2893 18.1143 69.2765 19.614C72.1424 19.3403 74.9433 18.7094 77.5863 17.742C75.6123 20.1513 73.1663 22.264 70.3515 23.991Z" fill="#FFFEFE"/>
</svg>
