<svg width="122" height="110" viewBox="0 0 122 110" fill="none" xmlns="http://www.w3.org/2000/svg">
<path d="M61 0C62.0961 0 63.1922 0.214844 64.193 0.623047L109.061 17.7891C114.304 19.7871 118.211 24.4492 118.187 30.0781C118.068 51.3906 108.346 90.3848 67.2906 108.109C63.3113 109.828 58.6887 109.828 54.7094 108.109C13.6535 90.3848 3.93163 51.3906 3.81249 30.0781C3.78866 24.4492 7.69647 19.7871 12.9387 17.7891L57.8308 0.623047C58.8078 0.214844 59.9039 0 61 0ZM61 14.3516V95.5625C93.8828 81.2109 102.723 49.4355 102.937 30.3789L61 14.3516Z" fill="white"/>
</svg>
